<svg width="16" height="18" viewBox="0 0 16 18" fill="none" xmlns="http://www.w3.org/2000/svg">
<path fill-rule="evenodd" clip-rule="evenodd" d="M14.0141 6.43903C11.8211 4.45503 8.1041 2.12703 5.33715 1.01303C4.13415 0.623027 3.12615 0.667027 2.34715 1.14303C1.49415 1.66403 0.93915 2.69203 0.69315 4.22303C0.51315 5.83203 0.42515 7.523 0.43215 9.249C0.42515 10.979 0.51315 12.671 0.69615 14.301C0.92815 15.795 1.47415 16.818 2.32115 17.343C2.75615 17.613 3.26315 17.748 3.83815 17.748C4.29515 17.748 4.79415 17.662 5.33315 17.491C5.34615 17.487 5.35815 17.483 5.36915 17.479C8.1071 16.376 11.8242 14.047 14.0091 12.067C15.0431 11.159 15.5671 10.212 15.5681 9.252C15.5681 8.292 15.0431 7.344 14.0141 6.43903Z" fill="#5A3FD6"/>
</svg>
